%TF.GenerationSoftware,KiCad,Pcbnew,(7.0.0)*%
%TF.CreationDate,2023-03-09T18:45:04+01:00*%
%TF.ProjectId,turn-on-pc-esp8266,7475726e-2d6f-46e2-9d70-632d65737038,rev?*%
%TF.SameCoordinates,Original*%
%TF.FileFunction,Copper,L1,Top*%
%TF.FilePolarity,Positive*%
%FSLAX46Y46*%
G04 Gerber Fmt 4.6, Leading zero omitted, Abs format (unit mm)*
G04 Created by KiCad (PCBNEW (7.0.0)) date 2023-03-09 18:45:04*
%MOMM*%
%LPD*%
G01*
G04 APERTURE LIST*
%TA.AperFunction,ComponentPad*%
%ADD10C,1.400000*%
%TD*%
%TA.AperFunction,ComponentPad*%
%ADD11O,1.400000X1.400000*%
%TD*%
%TA.AperFunction,ComponentPad*%
%ADD12R,1.700000X1.700000*%
%TD*%
%TA.AperFunction,ComponentPad*%
%ADD13O,1.700000X1.700000*%
%TD*%
%TA.AperFunction,ComponentPad*%
%ADD14R,1.600000X1.600000*%
%TD*%
%TA.AperFunction,ComponentPad*%
%ADD15O,1.600000X1.600000*%
%TD*%
%TA.AperFunction,ComponentPad*%
%ADD16R,2.000000X2.000000*%
%TD*%
%TA.AperFunction,ComponentPad*%
%ADD17O,1.600000X2.000000*%
%TD*%
%TA.AperFunction,ViaPad*%
%ADD18C,0.800000*%
%TD*%
%TA.AperFunction,Conductor*%
%ADD19C,0.200000*%
%TD*%
%TA.AperFunction,Conductor*%
%ADD20C,0.250000*%
%TD*%
G04 APERTURE END LIST*
D10*
%TO.P,R1,1*%
%TO.N,LED_IN*%
X132810000Y-102850000D03*
D11*
%TO.P,R1,2*%
%TO.N,CASE_LED-*%
X125189999Y-102849999D03*
%TD*%
D12*
%TO.P,J5,1,Pin_1*%
%TO.N,MOTHERBOARD_LED-*%
X159999999Y-95659999D03*
D13*
%TO.P,J5,2,Pin_2*%
%TO.N,MOTHERBOARD_LED+*%
X159999999Y-98199999D03*
%TD*%
D14*
%TO.P,PWR,1*%
%TO.N,POWER_PIN*%
X142489999Y-74749999D03*
D15*
%TO.P,PWR,2*%
%TO.N,CASE_LED-*%
X145029999Y-74749999D03*
%TO.P,PWR,3,NC*%
%TO.N,unconnected-(U3-NC-Pad3)*%
X147569999Y-74749999D03*
%TO.P,PWR,4*%
%TO.N,MOTHERBOARD_PWR_PIN_2*%
X147569999Y-67129999D03*
%TO.P,PWR,5*%
%TO.N,MOTHERBOARD_PWR_PIN_1*%
X145029999Y-67129999D03*
%TO.P,PWR,6*%
%TO.N,unconnected-(U3-Pad6)*%
X142489999Y-67129999D03*
%TD*%
D12*
%TO.P,J2,1,Pin_1*%
%TO.N,MOTHERBOARD_PWR_PIN_1*%
X164999999Y-71799999D03*
D13*
%TO.P,J2,2,Pin_2*%
%TO.N,MOTHERBOARD_PWR_PIN_2*%
X164999999Y-74339999D03*
%TD*%
D12*
%TO.P,J4,1,Pin_1*%
%TO.N,MOTHERBOARD_RESET_PIN_1*%
X164999999Y-83729999D03*
D13*
%TO.P,J4,2,Pin_2*%
%TO.N,MOTHERBOARD_RESET_PIN_2*%
X164999999Y-86269999D03*
%TD*%
D14*
%TO.P,LED,1*%
%TO.N,MOTHERBOARD_LED+*%
X147539999Y-95249999D03*
D15*
%TO.P,LED,2*%
%TO.N,MOTHERBOARD_LED-*%
X144999999Y-95249999D03*
%TO.P,LED,3,NC*%
%TO.N,unconnected-(U4-NC-Pad3)*%
X142459999Y-95249999D03*
%TO.P,LED,4*%
%TO.N,LED_IN*%
X142459999Y-102869999D03*
%TO.P,LED,5*%
%TO.N,LED_HIGH*%
X144999999Y-102869999D03*
%TO.P,LED,6*%
%TO.N,unconnected-(U4-Pad6)*%
X147539999Y-102869999D03*
%TD*%
D12*
%TO.P,J3,1,Pin_1*%
%TO.N,MOTHERBOARD_RESET_PIN_1*%
X159999999Y-83729999D03*
D13*
%TO.P,J3,2,Pin_2*%
%TO.N,MOTHERBOARD_RESET_PIN_2*%
X159999999Y-86269999D03*
%TD*%
D12*
%TO.P,J1,1,Pin_1*%
%TO.N,MOTHERBOARD_PWR_PIN_1*%
X159999999Y-71799999D03*
D13*
%TO.P,J1,2,Pin_2*%
%TO.N,MOTHERBOARD_PWR_PIN_2*%
X159999999Y-74339999D03*
%TD*%
D12*
%TO.P,J6,1,Pin_1*%
%TO.N,CASE_LED-*%
X164999999Y-95659999D03*
D13*
%TO.P,J6,2,Pin_2*%
%TO.N,CASE_LED+*%
X164999999Y-98199999D03*
%TD*%
D16*
%TO.P,U1,1,~{RST}*%
%TO.N,unconnected-(U1-~{RST}-Pad1)*%
X126222494Y-74054999D03*
D17*
%TO.P,U1,2,A0*%
%TO.N,unconnected-(U1-A0-Pad2)*%
X123682494Y-74054999D03*
%TO.P,U1,3,D0*%
%TO.N,unconnected-(U1-D0-Pad3)*%
X121142494Y-74054999D03*
%TO.P,U1,4,SCK/D5*%
%TO.N,RESET_PIN*%
X118602494Y-74054999D03*
%TO.P,U1,5,MISO/D6*%
%TO.N,unconnected-(U1-MISO{slash}D6-Pad5)*%
X116062494Y-74054999D03*
%TO.P,U1,6,MOSI/D7*%
%TO.N,POWER_PIN*%
X113522494Y-74054999D03*
%TO.P,U1,7,CS/D8*%
%TO.N,unconnected-(U1-CS{slash}D8-Pad7)*%
X110982494Y-74054999D03*
%TO.P,U1,8,3V3*%
%TO.N,LED_HIGH*%
X108442494Y-74054999D03*
%TO.P,U1,9,5V*%
%TO.N,unconnected-(U1-5V-Pad9)*%
X108442494Y-96914999D03*
%TO.P,U1,10,GND*%
%TO.N,CASE_LED-*%
X110982494Y-96914999D03*
%TO.P,U1,11,D4*%
%TO.N,unconnected-(U1-D4-Pad11)*%
X113522494Y-96914999D03*
%TO.P,U1,12,D3*%
%TO.N,unconnected-(U1-D3-Pad12)*%
X116062494Y-96914999D03*
%TO.P,U1,13,SDA/D2*%
%TO.N,CASE_LED+*%
X118602494Y-96914999D03*
%TO.P,U1,14,SCL/D1*%
%TO.N,LED_IN*%
X121142494Y-96914999D03*
%TO.P,U1,15,RX*%
%TO.N,unconnected-(U1-RX-Pad15)*%
X123682494Y-96914999D03*
%TO.P,U1,16,TX*%
%TO.N,unconnected-(U1-TX-Pad16)*%
X126222494Y-96914999D03*
%TD*%
D14*
%TO.P,RST,1*%
%TO.N,RESET_PIN*%
X142489999Y-88799999D03*
D15*
%TO.P,RST,2*%
%TO.N,CASE_LED-*%
X145029999Y-88799999D03*
%TO.P,RST,3,NC*%
%TO.N,unconnected-(U2-NC-Pad3)*%
X147569999Y-88799999D03*
%TO.P,RST,4*%
%TO.N,MOTHERBOARD_RESET_PIN_2*%
X147569999Y-81179999D03*
%TO.P,RST,5*%
%TO.N,MOTHERBOARD_RESET_PIN_1*%
X145029999Y-81179999D03*
%TO.P,RST,6*%
%TO.N,unconnected-(U2-Pad6)*%
X142489999Y-81179999D03*
%TD*%
D18*
%TO.N,CASE_LED-*%
X138000000Y-105000000D03*
X138000000Y-99000000D03*
%TD*%
D19*
%TO.N,CASE_LED-*%
X161340000Y-92000000D02*
X165000000Y-95660000D01*
X145000000Y-92000000D02*
X161340000Y-92000000D01*
X127340000Y-105000000D02*
X125190000Y-102850000D01*
X138000000Y-105000000D02*
X127340000Y-105000000D01*
X145030000Y-91970000D02*
X145000000Y-92000000D01*
X145030000Y-88800000D02*
X145030000Y-91970000D01*
X141000000Y-92000000D02*
X140000000Y-93000000D01*
X145000000Y-92000000D02*
X141000000Y-92000000D01*
X140300000Y-92700000D02*
X138000000Y-95000000D01*
X138000000Y-95000000D02*
X138000000Y-99000000D01*
X167000000Y-93660000D02*
X165000000Y-95660000D01*
X167000000Y-81000000D02*
X167000000Y-93660000D01*
X164725000Y-78725000D02*
X167000000Y-81000000D01*
X149005000Y-78725000D02*
X164725000Y-78725000D01*
X145030000Y-74750000D02*
X149005000Y-78725000D01*
D20*
%TO.N,LED_IN*%
X142440000Y-102850000D02*
X142460000Y-102870000D01*
X132810000Y-102850000D02*
X142440000Y-102850000D01*
%TO.N,RESET_PIN*%
X122150000Y-67550000D02*
X133900000Y-67550000D01*
X133900000Y-67550000D02*
X138650000Y-72300000D01*
X118602495Y-74055000D02*
X118602495Y-71097505D01*
X138650000Y-81300000D02*
X142490000Y-85140000D01*
X138650000Y-72300000D02*
X138650000Y-81300000D01*
X142490000Y-85140000D02*
X142490000Y-88800000D01*
X118602495Y-71097505D02*
X122150000Y-67550000D01*
%TO.N,POWER_PIN*%
X142490000Y-72990000D02*
X142490000Y-74750000D01*
X134750000Y-65250000D02*
X142490000Y-72990000D01*
X118300000Y-65250000D02*
X134750000Y-65250000D01*
X113522495Y-74055000D02*
X113522495Y-70027505D01*
X113522495Y-70027505D02*
X118300000Y-65250000D01*
D19*
%TO.N,CASE_LED-*%
X110982495Y-96915000D02*
X116917495Y-102850000D01*
X116917495Y-102850000D02*
X125190000Y-102850000D01*
%TO.N,CASE_LED+*%
X122587495Y-100900000D02*
X118602495Y-96915000D01*
X165000000Y-98200000D02*
X162300000Y-100900000D01*
X162300000Y-100900000D02*
X122587495Y-100900000D01*
D20*
%TO.N,LED_HIGH*%
X140970000Y-106900000D02*
X145000000Y-102870000D01*
X109600000Y-106900000D02*
X140970000Y-106900000D01*
X108442495Y-74055000D02*
X106395000Y-74055000D01*
X106395000Y-74055000D02*
X104150000Y-76300000D01*
X104150000Y-101450000D02*
X109600000Y-106900000D01*
X104150000Y-76300000D02*
X104150000Y-101450000D01*
D19*
%TO.N,MOTHERBOARD_LED+*%
X157050000Y-95250000D02*
X147540000Y-95250000D01*
X160000000Y-98200000D02*
X157050000Y-95250000D01*
%TO.N,MOTHERBOARD_LED-*%
X157440000Y-93100000D02*
X147150000Y-93100000D01*
X147150000Y-93100000D02*
X145000000Y-95250000D01*
X160000000Y-95660000D02*
X157440000Y-93100000D01*
D20*
%TO.N,MOTHERBOARD_PWR_PIN_1*%
X145030000Y-67130000D02*
X147810000Y-64350000D01*
X160000000Y-71800000D02*
X165000000Y-71800000D01*
X147810000Y-64350000D02*
X152550000Y-64350000D01*
X152550000Y-64350000D02*
X160000000Y-71800000D01*
%TO.N,MOTHERBOARD_PWR_PIN_2*%
X160000000Y-74340000D02*
X154780000Y-74340000D01*
X160000000Y-74340000D02*
X165000000Y-74340000D01*
X154780000Y-74340000D02*
X147570000Y-67130000D01*
%TO.N,MOTHERBOARD_RESET_PIN_1*%
X155420000Y-79150000D02*
X160000000Y-83730000D01*
X145030000Y-81180000D02*
X147060000Y-79150000D01*
X147060000Y-79150000D02*
X155420000Y-79150000D01*
X160000000Y-83730000D02*
X165000000Y-83730000D01*
%TO.N,MOTHERBOARD_RESET_PIN_2*%
X152660000Y-86270000D02*
X147570000Y-81180000D01*
X160000000Y-86270000D02*
X152660000Y-86270000D01*
X160000000Y-86270000D02*
X165000000Y-86270000D01*
%TD*%
M02*
