M48
; DRILL file {KiCad (7.0.0)} date Thu Mar  9 18:44:14 2023
; FORMAT={-:-/ absolute / metric / decimal}
; #@! TF.CreationDate,2023-03-09T18:44:14+01:00
; #@! TF.GenerationSoftware,Kicad,Pcbnew,(7.0.0)
; #@! TF.FileFunction,Plated,1,2,PTH
FMAT,2
METRIC
; #@! TA.AperFunction,Plated,PTH,ViaDrill
T1C0.400
; #@! TA.AperFunction,Plated,PTH,ComponentDrill
T2C0.700
; #@! TA.AperFunction,Plated,PTH,ComponentDrill
T3C0.800
; #@! TA.AperFunction,Plated,PTH,ComponentDrill
T4C1.000
%
G90
G05
T1
X138.0Y-99.0
X138.0Y-105.0
T2
X125.19Y-102.85
X132.81Y-102.85
T3
X142.46Y-95.25
X142.46Y-102.87
X142.49Y-67.13
X142.49Y-74.75
X142.49Y-81.18
X142.49Y-88.8
X145.0Y-95.25
X145.0Y-102.87
X145.03Y-67.13
X145.03Y-74.75
X145.03Y-81.18
X145.03Y-88.8
X147.54Y-95.25
X147.54Y-102.87
X147.57Y-67.13
X147.57Y-74.75
X147.57Y-81.18
X147.57Y-88.8
T4
X108.442Y-74.055
X108.442Y-96.915
X110.982Y-74.055
X110.982Y-96.915
X113.522Y-74.055
X113.522Y-96.915
X116.062Y-74.055
X116.062Y-96.915
X118.602Y-74.055
X118.602Y-96.915
X121.142Y-74.055
X121.142Y-96.915
X123.682Y-74.055
X123.682Y-96.915
X126.222Y-74.055
X126.222Y-96.915
X160.0Y-71.8
X160.0Y-74.34
X160.0Y-83.73
X160.0Y-86.27
X160.0Y-95.66
X160.0Y-98.2
X165.0Y-71.8
X165.0Y-74.34
X165.0Y-83.73
X165.0Y-86.27
X165.0Y-95.66
X165.0Y-98.2
T0
M30
